<svg width="303" height="303" viewBox="0 0 303 303" fill="none" xmlns="http://www.w3.org/2000/svg">
<rect width="303" height="303" fill="#212121"/>
<path d="M90.2189 238C76.8145 238 63.9687 236.248 51.6812 232.743C39.3938 229.079 29.5001 224.38 22 218.645L24.8051 152.934C31.986 158.031 50.8036 198.812 60.5377 202.157C70.4315 205.344 80.405 206.936 90.4583 206.936C98.118 206.936 104.262 206.22 108.889 204.786C113.677 203.193 117.187 201.042 119.421 198.334C121.656 195.626 122.773 192.52 122.773 189.015C122.773 184.555 121.017 181.05 117.506 178.501C113.996 175.793 109.368 173.643 103.623 172.05C97.8786 170.297 91.4956 168.704 84.4742 167.271C77.6124 165.678 70.6709 163.766 63.6494 161.536C56.7877 159.306 50.4844 156.438 44.7396 152.934C38.9949 149.429 34.2874 144.809 30.6171 139.075C27.1065 133.34 24.8051 124.1 24.8051 115.18C24.8051 105.622 27.9043 98.8512 33.0108 91.0456C38.2768 83.0806 46.096 76.7882 56.4685 72.1685C67.0005 67.3895 80.1656 65 95.9637 65C106.496 65 116.868 66.2744 127.081 68.8232C137.294 71.2127 146.31 74.8766 154.129 79.8149L142.161 109.206C134.342 104.745 126.522 101.48 118.703 99.4088C110.884 97.1786 103.224 96.0635 95.7243 96.0635C88.2241 96.0635 82.0805 96.9396 77.2932 98.692C72.5059 100.444 69.075 102.754 67.0005 105.622C64.9261 108.33 63.8888 111.516 63.8888 115.18C63.8888 119.481 65.6442 122.985 69.1548 125.693C72.6654 128.242 77.2932 130.313 83.038 131.906C88.7827 133.499 95.0861 135.092 101.948 136.685C108.969 138.278 115.911 140.11 122.773 142.181C129.794 144.252 136.177 147.04 141.922 150.544C147.666 154.049 152.294 158.669 155.805 164.403C159.475 170.138 161.31 177.386 161.31 186.148C161.31 195.547 158.677 204.149 153.411 211.954C148.145 219.76 140.246 226.052 129.714 230.832C119.342 235.611 106.176 238 90.2189 238ZM154.296 235.133V67.8674L217.419 109.206L193.073 203.591L277.09 164.403L281 211.954L154.296 235.133Z" fill="white"/>
</svg>
